HIERARCHY
ROOT Hips
{
	OFFSET 0.000000 0.000000 0.000000
	CHANNELS 6 Xposition Yposition Zposition Yrotation Xrotation Zrotation
	JOINT Chest
	{
		OFFSET 0.000000 -0.009281 11.569106
		CHANNELS 3 Yrotation Xrotation Zrotation
		JOINT Chest2
		{
			OFFSET -0.000000 0.016865 9.269641
			CHANNELS 3 Yrotation Xrotation Zrotation
			JOINT Chest3
			{
				OFFSET -0.000000 0.000001 8.374491
				CHANNELS 3 Yrotation Xrotation Zrotation
				JOINT Chest4
				{
					OFFSET -0.000000 0.000001 8.374493
					CHANNELS 3 Yrotation Xrotation Zrotation
					JOINT Neck
					{
						OFFSET -0.000000 0.000002 12.152554
						CHANNELS 3 Yrotation Xrotation Zrotation
						JOINT Head
						{
							OFFSET -0.000000 0.040101 7.802319
							CHANNELS 3 Yrotation Xrotation Zrotation
							End Site
							{
								OFFSET -0.000000 0.020947 14.853096
							}
						}
					}
					JOINT RightCollar
					{
						OFFSET 2.894404 0.000001 6.791374
						CHANNELS 3 Yrotation Xrotation Zrotation
						JOINT RightShoulder
						{
							OFFSET 13.574684 0.000001 0.000000
							CHANNELS 3 Yrotation Xrotation Zrotation
							JOINT RightElbow
							{
								OFFSET 23.923903 0.000002 0.000000
								CHANNELS 3 Yrotation Xrotation Zrotation
								JOINT RightWrist
								{
									OFFSET 19.846718 0.012767 0.000000
									CHANNELS 3 Yrotation Xrotation Zrotation
									End Site
									{
										OFFSET 14.973145 0.000001 0.000000
									}
								}
							}
						}
					}
					JOINT LeftCollar
					{
						OFFSET -2.894404 0.000001 6.791374
						CHANNELS 3 Yrotation Xrotation Zrotation
						JOINT LeftShoulder
						{
							OFFSET -13.574684 -0.000001 0.000000
							CHANNELS 3 Yrotation Xrotation Zrotation
							JOINT LeftElbow
							{
								OFFSET -23.923903 -0.000002 0.000000
								CHANNELS 3 Yrotation Xrotation Zrotation
								JOINT LeftWrist
								{
									OFFSET -19.846718 0.012763 0.000000
									CHANNELS 3 Yrotation Xrotation Zrotation
									End Site
									{
										OFFSET -14.973145 -0.000001 0.000000
									}
								}
							}
						}
					}
				}
			}
		}
	}
	JOINT RightHip
	{
		OFFSET 9.469263 0.004643 0.045487
		CHANNELS 3 Yrotation Xrotation Zrotation
		JOINT RightKnee
		{
			OFFSET 0.000000 0.002661 -40.478676
			CHANNELS 3 Yrotation Xrotation Zrotation
			JOINT RightAnkle
			{
				OFFSET 0.000000 0.049106 -35.224068
				CHANNELS 3 Yrotation Xrotation Zrotation
				JOINT RightToe
				{
					OFFSET -0.000001 12.539529 -6.151390
					CHANNELS 3 Yrotation Xrotation Zrotation
					End Site
					{
						OFFSET -0.000001 5.044994 -1.291870
					}
				}
			}
		}
	}
	JOINT LeftHip
	{
		OFFSET -9.469263 0.004641 0.045487
		CHANNELS 3 Yrotation Xrotation Zrotation
		JOINT LeftKnee
		{
			OFFSET 0.000000 0.002661 -40.478676
			CHANNELS 3 Yrotation Xrotation Zrotation
			JOINT LeftAnkle
			{
				OFFSET 0.000000 0.049106 -35.224068
				CHANNELS 3 Yrotation Xrotation Zrotation
				JOINT LeftToe
				{
					OFFSET -0.000001 12.539529 -6.151390
					CHANNELS 3 Yrotation Xrotation Zrotation
					End Site
					{
						OFFSET -0.000001 5.044994 -1.291870
					}
				}
			}
		}
	}
}
MOTION
Frames: 5
Frame Time: 0.016667
0.093399 -26.611221 82.661919 -3.698938 0.990420 -121.085758 -1.669642 -4.609332 3.697312 -0.514438 -1.881859 1.451778 -0.514438 -1.881860 1.451774 -0.381325 -1.412627 1.087152 1.133207 -12.342694 -3.447799 0.705669 13.238878 -6.098731 10.085022 5.374721 -1.818861 42.400715 -16.050540 -14.315099 -28.413633 -60.755701 88.508924 -44.449980 40.537350 50.576902 -7.921437 5.295719 -7.007730 -40.859711 -8.681833 19.959674 -1.880553 -64.587396 -60.535687 29.992686 14.810376 -75.411258 -4.748249 7.416826 14.871267 -0.260106 -24.156926 0.550929 7.178582 13.599236 6.651479 -1.844508 0.016674 0.085015 -0.775178 0.065876 -7.426445 3.885292 -1.598341 -10.583149 -5.657993 -1.094218 -0.105089 0.576025 -0.994650 -1.663927 
0.481197 -26.090994 82.632660 -3.856740 0.726390 -121.138801 -1.438962 -4.789978 3.682773 -0.516636 -1.921794 1.439643 -0.516636 -1.921794 1.439644 -0.382914 -1.442573 1.078010 1.100855 -12.293694 -3.420478 0.653386 13.329237 -6.061729 10.048982 5.310389 -1.944359 42.473019 -15.789963 -14.250174 -29.464978 -60.680972 89.272273 -44.343316 40.615904 50.699306 -7.909416 5.136627 -7.078996 -40.820803 -8.838883 19.920098 -2.261598 -64.554256 -60.380266 30.152847 14.913484 -75.188464 -4.786230 7.237673 12.284328 -1.136827 -24.485415 1.372640 6.845468 12.715346 8.828655 -1.037760 0.774712 -0.035583 -1.010415 0.023261 -6.507997 3.722551 -2.170711 -11.202278 -5.748171 -0.171197 0.814538 0.905879 -1.276049 -1.056813 
0.777944 -25.833151 82.514008 -3.796635 0.601517 -121.108762 -1.199176 -4.779593 3.516323 -0.539864 -1.978348 1.454263 -0.539865 -1.978348 1.454267 -0.400151 -1.485057 1.088846 1.069306 -12.204962 -3.403524 0.596525 13.493081 -6.045409 9.995511 5.145075 -1.923946 42.513491 -15.568989 -14.105784 -29.831514 -60.700260 89.446252 -44.390923 40.755913 50.704893 -7.908382 5.164782 -7.057445 -40.709106 -8.974875 19.880017 -2.532046 -64.558183 -60.411951 30.277245 14.868193 -74.988312 -5.149378 7.411735 9.379850 -1.633011 -24.865186 3.272077 5.901265 11.979085 9.238942 -0.223916 1.479987 0.009852 -1.288922 0.266683 -6.226457 3.438150 -2.936793 -9.104432 -5.279021 0.908431 1.101149 0.955702 -1.752204 -0.192949 
0.879015 -25.683229 82.401039 -3.627843 0.345979 -121.193306 -0.834463 -4.774408 3.444083 -0.574893 -2.032539 1.472731 -0.574893 -2.032540 1.472734 -0.426228 -1.525802 1.102524 1.042968 -12.117828 -3.385777 0.549987 13.654194 -6.025358 9.976000 5.136949 -1.874817 42.549391 -15.746965 -14.049434 -29.200227 -60.732731 88.789078 -44.490985 40.790136 50.638141 -7.853189 5.157411 -7.047826 -40.635667 -8.817877 19.823781 -2.633984 -64.551530 -60.501788 30.309163 14.625993 -74.880129 -5.196145 7.757464 7.261738 -0.778719 -25.624445 4.389426 3.955770 11.645747 8.191216 0.355804 1.820442 0.010539 -1.051620 0.553278 -5.343342 3.068017 -3.695238 -5.019612 -4.476700 1.788415 0.627755 0.581230 -2.051440 0.442075 
1.075884 -25.670856 82.420372 -3.713022 0.401262 -121.286333 -0.941494 -4.809403 3.412091 -0.606697 -2.072417 1.489977 -0.606698 -2.072417 1.489977 -0.449922 -1.555806 1.115307 1.035698 -12.067435 -3.380144 0.536303 13.747570 -6.019232 10.001559 5.136251 -1.876870 42.572706 -16.008917 -14.055747 -28.165666 -60.751643 87.877371 -44.617459 40.735542 50.506172 -7.766628 5.185981 -7.060468 -40.628789 -8.573410 19.758279 -2.451641 -64.541893 -60.693266 30.159749 14.388926 -74.893680 -5.671837 8.066615 5.481191 0.360472 -26.523231 2.896580 2.572644 11.379825 8.171842 0.719499 1.930713 0.023676 -0.600772 0.505923 -3.351902 2.651702 -4.156448 -1.110096 -3.452562 2.762892 0.875170 -0.286568 -2.327767 0.473019 
